<svg width="95" height="95" viewBox="0 0 95 95" fill="none" xmlns="http://www.w3.org/2000/svg">
<path d="M72.5695 6.59717H22.4307V88.4027H72.5695V6.59717Z" fill="#D22F27"/>
<path d="M47.5001 48.8193C54.7872 48.8193 60.6946 42.912 60.6946 35.6249C60.6946 28.3378 54.7872 22.4304 47.5001 22.4304C40.213 22.4304 34.3057 28.3378 34.3057 35.6249C34.3057 42.912 40.213 48.8193 47.5001 48.8193Z" fill="#F1B31C"/>
<path d="M42.0732 28.2534V31.4908" stroke="black" stroke-linecap="round" stroke-linejoin="round"/>
<path d="M39.4833 31.491H44.5623C43.4022 34.1308 41.5439 36.4041 39.1875 38.0659" stroke="black" stroke-linecap="round" stroke-linejoin="round"/>
<path d="M44.3158 37.2925C43.439 36.823 42.6739 36.1698 42.0728 35.3774V42.9964" stroke="black" stroke-linecap="round" stroke-linejoin="round"/>
<path d="M45.9326 29.2231H55.0208" stroke="black" stroke-linecap="round" stroke-linejoin="round"/>
<path d="M53.396 31.4558H47.4744V34.1076H53.396V31.4558Z" stroke="black" stroke-linecap="round" stroke-linejoin="round"/>
<path d="M46.6687 42.9306V36.4363H50.4925H54.3162V42.9306" stroke="black" stroke-linecap="round" stroke-linejoin="round"/>
<path d="M46.6685 39.1436H54.3169" stroke="black" stroke-linecap="round" stroke-linejoin="round"/>
<path d="M46.6685 41.8479H54.3169" stroke="black" stroke-linecap="round" stroke-linejoin="round"/>
<path d="M50.4417 41.848V36.4363" stroke="black" stroke-linecap="round" stroke-linejoin="round"/>
<path d="M47.5001 48.8193C54.7872 48.8193 60.6946 42.912 60.6946 35.6249C60.6946 28.3378 54.7872 22.4304 47.5001 22.4304C40.213 22.4304 34.3057 28.3378 34.3057 35.6249C34.3057 42.912 40.213 48.8193 47.5001 48.8193Z" stroke="black" stroke-width="2" stroke-miterlimit="10" stroke-linecap="round"/>
<path d="M72.5695 23.7498C69.2038 27.5682 65.0125 30.5699 60.3137 32.527" stroke="black" stroke-width="2" stroke-miterlimit="10" stroke-linecap="round"/>
<path d="M34.6865 32.527C29.9877 30.5699 25.7964 27.5682 22.4307 23.7498" stroke="black" stroke-width="2" stroke-miterlimit="10" stroke-linecap="round"/>
<path d="M72.5695 6.59717H22.4307V88.4027H72.5695V6.59717Z" stroke="black" stroke-width="2" stroke-linejoin="round"/>
</svg>
