<svg width="95" height="95" viewBox="0 0 95 95" fill="none" xmlns="http://www.w3.org/2000/svg">
<path d="M79.1124 69.6592H15.8876C15.1588 69.6592 14.5681 69.0685 14.5681 68.3397V29.3541C14.5681 28.6254 15.1588 28.0347 15.8876 28.0347H79.1124C79.8412 28.0347 80.4319 28.6254 80.4319 29.3541V68.3397C80.4319 69.0685 79.8412 69.6592 79.1124 69.6592Z" fill="#92D3F5"/>
<path d="M79.1667 40.9029H15.8334C15.1046 40.9029 14.5139 40.3122 14.5139 39.5835V35.889C14.5139 35.1603 15.1046 34.5696 15.8334 34.5696H79.1667C79.8954 34.5696 80.4861 35.1603 80.4861 35.889V39.5835C80.4861 40.3122 79.8954 40.9029 79.1667 40.9029Z" fill="#3F3F3F"/>
<path d="M27.7063 63.0695H25.1372C22.941 63.0695 21.144 61.2725 21.144 59.0763V56.5072C21.144 54.311 22.941 52.5139 25.1372 52.5139H27.7063C29.9025 52.5139 31.6995 54.3109 31.6995 56.5072V59.0763C31.6996 61.2725 29.9026 63.0695 27.7063 63.0695Z" fill="#FCEA2B"/>
<path d="M79.1124 69.6592H15.8876C15.1588 69.6592 14.5681 69.0685 14.5681 68.3397V29.3541C14.5681 28.6254 15.1588 28.0347 15.8876 28.0347H79.1124C79.8412 28.0347 80.4319 28.6254 80.4319 29.3541V68.3397C80.4319 69.0685 79.8412 69.6592 79.1124 69.6592Z" stroke="black" stroke-width="2" stroke-miterlimit="10"/>
<path d="M79.1667 40.9029H15.8334C15.1046 40.9029 14.5139 40.3122 14.5139 39.5835V35.889C14.5139 35.1603 15.1046 34.5696 15.8334 34.5696H79.1667C79.8954 34.5696 80.4861 35.1603 80.4861 35.889V39.5835C80.4861 40.3122 79.8954 40.9029 79.1667 40.9029Z" stroke="black" stroke-width="2" stroke-miterlimit="10"/>
<path d="M27.7063 63.0695H25.1372C22.941 63.0695 21.144 61.2725 21.144 59.0763V56.5072C21.144 54.311 22.941 52.5139 25.1372 52.5139H27.7063C29.9025 52.5139 31.6995 54.3109 31.6995 56.5072V59.0763C31.6996 61.2725 29.9026 63.0695 27.7063 63.0695Z" stroke="black" stroke-width="2" stroke-miterlimit="10" stroke-linecap="round" stroke-linejoin="round"/>
</svg>
