<svg width="95" height="95" viewBox="0 0 95 95" fill="none" xmlns="http://www.w3.org/2000/svg">
<path d="M19.1809 39.3836V32.4506C19.1809 32.4506 34.653 30.9009 47.4998 30.9009C60.3465 30.9009 75.8393 32.4506 75.8393 32.4506V39.3836" fill="#D0CFCE"/>
<path d="M47.5 36.8037H24.1385C24.1385 51.2475 14.5139 55.3319 14.5139 64.6515C14.5139 73.9711 29.2823 80.8796 47.5 80.8796C65.7177 80.8796 80.4861 73.9711 80.4861 64.6515C80.4861 55.3319 70.8616 51.2475 70.8616 36.8037H47.5Z" fill="#8967AA"/>
<path d="M58.0916 36.8037C58.0916 36.8037 70.7329 49.964 65.9429 78.2022C65.5721 80.388 80.4862 70.4762 80.4862 64.6515C80.4862 55.3319 70.8617 51.2475 70.8617 36.8037H58.0916Z" fill="#B399C8"/>
<path d="M49.7327 24.9098C52.6017 24.9098 54.9274 22.5841 54.9274 19.7152C54.9274 16.8462 52.6017 14.5205 49.7327 14.5205C46.8638 14.5205 44.5381 16.8462 44.5381 19.7152C44.5381 22.5841 46.8638 24.9098 49.7327 24.9098Z" fill="#D0CFCE"/>
<path d="M43.5575 22.0373C45.7436 22.0373 47.5158 20.2651 47.5158 18.0789C47.5158 15.8928 45.7436 14.1206 43.5575 14.1206C41.3713 14.1206 39.5991 15.8928 39.5991 18.0789C39.5991 20.2651 41.3713 22.0373 43.5575 22.0373Z" fill="#D0CFCE"/>
<path d="M50.8269 15.8337C52.9276 16.4387 54.1402 18.6321 53.5352 20.733C52.9302 22.8338 50.7368 24.0462 48.636 23.4413" fill="#D0CFCE"/>
<path d="M47.5 36.8037H24.1385C24.1385 51.2475 14.5139 55.3319 14.5139 64.6515C14.5139 73.9711 29.2823 80.8796 47.5 80.8796C65.7177 80.8796 80.4861 73.9711 80.4861 64.6515C80.4861 55.3319 70.8616 51.2475 70.8616 36.8037H47.5V36.8037Z" stroke="black" stroke-width="2" stroke-miterlimit="10" stroke-linecap="round" stroke-linejoin="round"/>
<path d="M19.1809 38.1233V32.2203C19.1809 32.2203 34.653 30.9009 47.4998 30.9009C60.3465 30.9009 75.8393 32.2203 75.8393 32.2203V38.1233" stroke="black" stroke-width="2" stroke-miterlimit="10" stroke-linecap="round" stroke-linejoin="round"/>
<path d="M24.6721 26.8666H32.9239L37.4128 22.9531" stroke="black" stroke-width="2" stroke-miterlimit="10" stroke-linecap="round" stroke-linejoin="round"/>
<path d="M66.1057 26.8666H57.8539L55.6094 24.9099" stroke="black" stroke-width="2" stroke-miterlimit="10" stroke-linecap="round" stroke-linejoin="round"/>
<path d="M43.5575 22.0373C45.7436 22.0373 47.5158 20.2651 47.5158 18.0789C47.5158 15.8928 45.7436 14.1206 43.5575 14.1206C41.3713 14.1206 39.5991 15.8928 39.5991 18.0789C39.5991 20.2651 41.3713 22.0373 43.5575 22.0373Z" stroke="black" stroke-width="2" stroke-miterlimit="10" stroke-linecap="round" stroke-linejoin="round"/>
<path d="M50.8269 15.8337C52.9276 16.4387 54.1402 18.6321 53.5352 20.733C52.9302 22.8338 50.7368 24.0462 48.636 23.4413" stroke="black" stroke-width="2" stroke-miterlimit="10" stroke-linecap="round" stroke-linejoin="round"/>
<path d="M47.5 36.8037H24.1385C24.1385 51.2475 14.5139 55.3319 14.5139 64.6515C14.5139 73.9711 29.2823 80.8796 47.5 80.8796C65.7177 80.8796 80.4861 73.9711 80.4861 64.6515C80.4861 55.3319 70.8616 51.2475 70.8616 36.8037H47.5V36.8037Z" stroke="black" stroke-width="2" stroke-miterlimit="10" stroke-linecap="round" stroke-linejoin="round"/>
</svg>
