<svg width="95" height="95" viewBox="0 0 95 95" fill="none" xmlns="http://www.w3.org/2000/svg">
<path d="M68.5254 47.331C74.0665 48.5551 77.4512 54.5647 77.4512 54.5647C77.4512 54.5647 71.8504 58.589 66.3086 57.3653C60.7668 56.1417 57.3828 50.1316 57.3828 50.1316C57.3828 50.1316 62.9865 46.1097 68.5254 47.331Z" fill="#B1CC33"/>
<path d="M29.5052 26.3784C34.8714 28.2244 37.5509 34.5798 37.5509 34.5798C37.5509 34.5798 31.5291 37.9414 26.1622 36.0958C20.7952 34.2502 18.1165 27.8944 18.1165 27.8944C18.1165 27.8944 24.141 24.5354 29.5052 26.3784Z" fill="#5C9E31"/>
<path d="M47.5001 83.3443V67.5109L40.9028 38.4832" stroke="black" stroke-width="2" stroke-linecap="round" stroke-linejoin="round"/>
<path d="M47.5 67.5109L54.0972 54.3164" stroke="black" stroke-width="2" stroke-linecap="round" stroke-linejoin="round"/>
<path d="M29.5052 26.3784C34.8714 28.2244 37.5509 34.5798 37.5509 34.5798C37.5509 34.5798 31.5291 37.9414 26.1622 36.0958C20.7952 34.2502 18.1165 27.8944 18.1165 27.8944C18.1165 27.8944 24.141 24.5354 29.5052 26.3784Z" stroke="black" stroke-width="2" stroke-linecap="round" stroke-linejoin="round"/>
<path d="M68.5254 47.331C74.0665 48.5551 77.4512 54.5647 77.4512 54.5647C77.4512 54.5647 71.8504 58.589 66.3086 57.3653C60.7668 56.1417 57.3828 50.1316 57.3828 50.1316C57.3828 50.1316 62.9865 46.1097 68.5254 47.331Z" stroke="black" stroke-width="2" stroke-linecap="round" stroke-linejoin="round"/>
</svg>
