<svg xmlns="http://www.w3.org/2000/svg" width="60" viewBox="0 0 59 35" id="headerlogo"><defs><linearGradient id="Logo_svg__a" gradientUnits="userSpaceOnUse" x1="-0.001" y1="0.501" x2="1" y2="0.501" gradientTransform="matrix(27.03516 0 0 30.8164 31.965 2.21)"><stop offset="0" style="stop-color: rgb(159, 45, 201); stop-opacity: 1;"></stop><stop offset="1" style="stop-color: rgb(218, 114, 158); stop-opacity: 1;"></stop></linearGradient><linearGradient id="Logo_svg__b" gradientUnits="userSpaceOnUse" x1="0" y1="0.498" x2="1.001" y2="0.498" gradientTransform="matrix(24.82422 0 0 7.8164 .016 13.734)"><stop offset="0" style="stop-color: rgb(159, 45, 201); stop-opacity: 1;"></stop><stop offset="1" style="stop-color: rgb(218, 114, 158); stop-opacity: 1;"></stop></linearGradient><linearGradient id="Logo_svg__c" gradientUnits="userSpaceOnUse" x1="0" y1="0.5" x2="1" y2="0.5" gradientTransform="matrix(24.4961 0 0 8.23047 .18 24.8)"><stop offset="0" style="stop-color: rgb(159, 45, 201); stop-opacity: 1;"></stop><stop offset="1" style="stop-color: rgb(218, 114, 158); stop-opacity: 1;"></stop></linearGradient><linearGradient id="Logo_svg__d" gradientUnits="userSpaceOnUse" x1="0" y1="0.502" x2="1" y2="0.502" gradientTransform="matrix(24.48828 0 0 8.22266 .18 2.223)"><stop offset="0" style="stop-color: rgb(159, 45, 201); stop-opacity: 1;"></stop><stop offset="1" style="stop-color: rgb(218, 114, 158); stop-opacity: 1;"></stop></linearGradient></defs><path d="M57.848 12.297c.726-.04 1.12-.422 1.152-.973a1.085 1.085 0 0 0-.102-.48c-2.48-5.16-7.597-8.489-13.261-8.633-5.668-.145-10.938 2.922-13.672 7.95-.235.48-.192 1.05.117 1.484.305.437.824.668 1.348.601 2.53-.21 9.004-.328 10.16 0 1.808.516 2.164 2.008 2.238 3.84.09 1.371.09 2.746 0 4.121-.101 2.2-.422 3.25-2.82 4.16-1.031.399-6.668.29-8.985.102a1.261 1.261 0 0 0-1.273.566 1.3 1.3 0 0 0 .008 1.406c2.847 4.141 7.515 6.598 12.496 6.586h.45c5.151-.152 9.874-2.941 12.542-7.406a.8.8 0 0 0 .102-.246c.109-.523-.223-1.008-.93-1-3.207.121-3.969-1.867-3.98-3.934 0-.734-.047-2.925 0-3.808.078-2.703.695-4.403 4.41-4.336Zm0 0" style="stroke: none; fill-rule: nonzero; fill: url(&quot;#Logo_svg__a&quot;);"></path><path d="M12.516 21.55c-3.016 0-6.059-.1-9.086-.3-1.668-.023-3.075-1.258-3.34-2.922a12.74 12.74 0 0 1-.074-1.281c.082-1.649 1.406-2.953 3.035-2.988 3.16-.215 6.324-.325 9.484-.325h.121c3.035 0 6.102.11 9.153.32 1.628.036 2.953 1.34 3.03 2.989-.003.426-.026.855-.073 1.281-.266 1.668-1.676 2.906-3.344 2.934-2.871.183-5.754.281-8.613.285Zm0 0" style="stroke: none; fill-rule: nonzero; fill: url(&quot;#Logo_svg__b&quot;);"></path><path d="M12.582 25.04c-3.703 0-7.418-.08-11.145-.235-.503-.07-1 .172-1.257.613-.262.445-.235 1 .066 1.414 2.863 3.902 7.383 6.2 12.18 6.2s9.316-2.298 12.18-6.2c.296-.41.324-.96.07-1.402a1.264 1.264 0 0 0-1.242-.63c-3.43.145-6.856.22-10.274.227Zm0 0" style="stroke: none; fill-rule: nonzero; fill: url(&quot;#Logo_svg__c&quot;);"></path><path d="M12.867 10.223c3.508 0 7.028.074 10.559.222.5.063.988-.183 1.242-.62.258-.442.23-.99-.066-1.403-2.864-3.899-7.38-6.2-12.176-6.2-4.801 0-9.317 2.301-12.18 6.2-.293.414-.32.965-.066 1.402.258.438.746.684 1.242.621 3.73-.152 7.453-.234 11.168-.238Zm0 0" style="stroke: none; fill-rule: nonzero; fill: url(&quot;#Logo_svg__d&quot;);"></path></svg>